<svg version="1.1" xmlns="http://www.w3.org/2000/svg" xmlns:xlink="http://www.w3.org/1999/xlink" width="655.38326" height="655.38326" viewBox="0,0,655.38326,655.38326"><defs><radialGradient cx="240" cy="180" r="327.69163" gradientUnits="userSpaceOnUse" id="color-1"><stop offset="0" stop-color="#1a1a1a" stop-opacity="0"/><stop offset="1" stop-color="#1a1a1a"/></radialGradient></defs><g transform="translate(87.69163,147.69163)"><g data-paper-data="{&quot;isPaintingLayer&quot;:true}" fill-rule="nonzero" stroke-linecap="butt" stroke-linejoin="miter" stroke-miterlimit="10" stroke-dasharray="" stroke-dashoffset="0" style="mix-blend-mode: normal"><g stroke-width="0"><path d="M266.18987,218.15673v-77.45192h32.44594v77.45192z" fill="#264678" stroke="none"/><path d="M266.29988,151.77066l8.99563,39.1816l19.25915,8.96042l-28.90793,-0.43z" data-paper-data="{&quot;index&quot;:null}" fill="#203a64" stroke="#000000"/><path d="M176.18988,214.65673v-77.45192h32.44594v77.45192z" fill="#264678" stroke="none"/><path d="M176.29989,148.77066l8.99563,39.1816l19.25914,8.96042l-28.90793,-0.43z" data-paper-data="{&quot;index&quot;:null}" fill="#203a64" stroke="#000000"/><path d="M156.32501,163.88269v-28.91538h72.83784v28.91538z" fill="#4a86e4" stroke="#000000"/><path d="M156.98717,224.46731v-28.91538h72.83784v28.91538z" fill="#9ac0ff" stroke="#000000"/><path d="M266.00676,164.96731v-29h58.06826v29z" fill="#00307d" stroke="none"/><path d="M155.92501,163.88269l59.6029,-9.35081l13.23494,-19.56457v28.91538z" fill="#457dd7" stroke="#000000"/><path d="M229.36286,135.36731l-59.60289,9.35081l-13.23495,19.56457v-28.91538z" data-paper-data="{&quot;index&quot;:null}" fill="#7198d6" stroke="#000000"/><path d="M230.16285,195.71731l-59.60289,9.35081l-13.23495,19.56457v-28.91538z" data-paper-data="{&quot;index&quot;:null}" fill="#aecdff" stroke="#000000"/><path d="M156.77502,224.78269l59.6029,-9.35081l13.23494,-19.56457v28.91538z" fill="#8db1ea" stroke="#000000"/><path d="M232.23717,224.71731v-28.91538h72.83784v28.91538z" fill="#9ac0ff" stroke="#000000"/><path d="M305.41285,195.96731l-59.6029,9.35081l-13.23495,19.56457v-28.91538z" data-paper-data="{&quot;index&quot;:null}" fill="#aecdff" stroke="#000000"/><path d="M232.02502,225.03269l59.6029,-9.35081l13.23494,-19.56457v28.91538z" fill="#8db1ea" stroke="#000000"/><path d="M266.17501,165.38269l47.32846,-9.35081l10.50938,-19.56457v28.91538z" fill="#002259" stroke="#000000"/><path d="M324.01286,136.21731l-47.32846,9.35081l-10.50938,19.56457v-28.91538z" data-paper-data="{&quot;index&quot;:null}" fill="#224989" stroke="#000000"/></g><text transform="translate(151.07813,263.25) scale(0.5,0.5)" font-size="40" xml:space="preserve" fill="#ffffff" fill-rule="nonzero" stroke="none" stroke-width="1" stroke-linecap="butt" stroke-linejoin="miter" stroke-miterlimit="10" stroke-dasharray="" stroke-dashoffset="0" font-family="Pixel" font-weight="normal" text-anchor="start" style="mix-blend-mode: normal"><tspan x="0" dy="0">1D10T1C STUD10S</tspan></text><path d="M-87.69163,180c0,-180.97909 146.71254,-327.69163 327.69163,-327.69163c180.97909,0 327.69163,146.71254 327.69163,327.69163c0,180.97909 -146.71254,327.69163 -327.69163,327.69163c-180.97909,0 -327.69163,-146.71254 -327.69163,-327.69163z" fill="url(#color-1)" stroke="none" stroke-width="0"/></g></g></svg>