<svg version="1.1" xmlns="http://www.w3.org/2000/svg" xmlns:xlink="http://www.w3.org/1999/xlink" width="312.33871" height="310.60908" viewBox="0,0,312.33871,310.60908"><defs><radialGradient cx="-14028.80132" cy="14528.09766" r="20597.27755" gradientUnits="userSpaceOnUse" id="color-1"><stop offset="0" stop-color="#ffffff"/><stop offset="1" stop-color="#ffffff" stop-opacity="0"/></radialGradient><radialGradient cx="-8267.04458" cy="8816.10173" r="12291.22349" gradientUnits="userSpaceOnUse" id="color-2"><stop offset="0" stop-color="#ffffff"/><stop offset="1" stop-color="#ffffff" stop-opacity="0"/></radialGradient><radialGradient cx="240" cy="180" r="111.5" gradientUnits="userSpaceOnUse" id="color-3"><stop offset="0" stop-color="#474747"/><stop offset="1" stop-color="#474747" stop-opacity="0"/></radialGradient></defs><g transform="translate(-83.83065,-24.69546)"><g data-paper-data="{&quot;isPaintingLayer&quot;:true}" fill-rule="nonzero" stroke="none" stroke-width="0" stroke-linecap="butt" stroke-linejoin="miter" stroke-miterlimit="10" stroke-dasharray="" stroke-dashoffset="0" style="mix-blend-mode: normal"><path d="M84.81361,159.14436c9.28626,-87.87841 86.49153,-142.7549 171.08169,-133.41845c84.59016,9.33645 148.52561,81.39898 139.40729,167.688c-9.1183,86.28902 -81.54969,150.85596 -172.01328,140.87123c-90.46359,-9.98473 -147.76196,-87.2624 -138.47568,-175.14081zM238.35003,289.38897c98.74752,3.71575 109.42224,-107.81185 109.42224,-116.50713c0,-8.69528 -18.12648,-100.55955 -106.2734,-96.82687c-48.3274,2.04648 -110.79555,8.16239 -112.57109,92.89082c-2.01835,96.31537 66.91037,118.84352 109.42224,120.44318z" fill="url(#color-1)"/><path d="M144.11211,167.55457c5.54148,-52.44057 51.61297,-85.18759 102.09132,-79.61614c50.47836,5.57145 88.6312,48.57404 83.18993,100.06618c-5.44128,51.49214 -48.66399,90.02181 -102.64725,84.06353c-53.98327,-5.95829 -88.1755,-52.07299 -82.634,-104.51355z" fill="url(#color-2)"/><path d="M128.5,291.5v-223h223v223z" fill="url(#color-3)"/></g></g></svg>