<svg version="1.1" xmlns="http://www.w3.org/2000/svg" xmlns:xlink="http://www.w3.org/1999/xlink" width="876.06469" height="998.49744" viewBox="0,0,876.06469,998.49744"><g transform="translate(30.33485,255.5401)"><g data-paper-data="{&quot;isPaintingLayer&quot;:true}" fill-rule="nonzero" stroke="none" stroke-width="0" stroke-linecap="butt" stroke-linejoin="miter" stroke-miterlimit="10" stroke-dasharray="" stroke-dashoffset="0" style="mix-blend-mode: normal"><path d="M179.89499,45.07508c0,-5.79899 4.70101,-10.5 10.5,-10.5c5.79899,0 10.5,4.70101 10.5,10.5c0,5.79899 -4.70101,10.5 -10.5,10.5c-5.79899,0 -10.5,-4.70101 -10.5,-10.5z" fill="#00a120"/><path d="M182.89499,99.57508c0,-7.73199 6.26801,-14 14,-14c7.73199,0 14,6.26801 14,14c0,7.73199 -6.26801,14 -14,14c-7.73199,0 -14,-6.26801 -14,-14z" fill="#00a120"/><path d="M167.89499,186.57508c0,-13.25483 10.74517,-24 24,-24c13.25483,0 24,10.74517 24,24c0,13.25483 -10.74517,24 -24,24c-13.25483,0 -24,-10.74517 -24,-24z" fill="#00a120"/><path d="M143.89499,124.07508c0,-6.35127 5.14873,-11.5 11.5,-11.5c6.35127,0 11.5,5.14873 11.5,11.5c0,6.35127 -5.14873,11.5 -11.5,11.5c-6.35127,0 -11.5,-5.14873 -11.5,-11.5z" fill="#00a120"/><path d="M150.89499,329.07508c0,-10.21727 8.28273,-18.5 18.5,-18.5c10.21727,0 18.5,8.28273 18.5,18.5c0,10.21727 -8.28273,18.5 -18.5,18.5c-10.21727,0 -18.5,-8.28273 -18.5,-18.5z" fill="#00a120"/><path d="M147.24289,16.50557c0,-6.21943 5.04184,-11.26126 11.26126,-11.26126c6.21943,0 11.26126,5.04183 11.26126,11.26126c0,6.21943 -5.04183,11.26126 -11.26126,11.26126c-6.21943,0 -11.26126,-5.04183 -11.26126,-11.26126z" fill="#00a120"/><path d="M-14.33485,251.05255c0,-6.07513 4.92487,-11 11,-11c6.07513,0 11,4.92487 11,11c0,6.07513 -4.92487,11 -11,11c-6.07513,0 -11,-4.92487 -11,-11z" fill="#00a120"/><path d="M-19.33485,112.05255c0,-11.0457 8.9543,-20 20,-20c11.0457,0 20,8.9543 20,20c0,11.04569 -8.9543,20 -20,20c-11.0457,0 -20,-8.95431 -20,-20z" fill="#00a120"/><path d="M-5.33485,360.55255c0,-7.45585 6.04415,-13.5 13.5,-13.5c7.45585,0 13.5,6.04415 13.5,13.5c0,7.45585 -6.04415,13.5 -13.5,13.5c-7.45585,0 -13.5,-6.04415 -13.5,-13.5z" fill="#00a120"/><path d="M90.66515,44.55255c0,-13.53098 10.96902,-24.5 24.5,-24.5c13.53098,0 24.5,10.96902 24.5,24.5c0,13.53098 -10.96902,24.5 -24.5,24.5c-13.53098,0 -24.5,-10.96902 -24.5,-24.5z" fill="#00a120"/><path d="M79.66515,165.55255c0,-5.79899 4.70101,-10.5 10.5,-10.5c5.79899,0 10.5,4.70101 10.5,10.5c0,5.79899 -4.70101,10.5 -10.5,10.5c-5.79899,0 -10.5,-4.70101 -10.5,-10.5z" fill="#00a120"/><path d="M50.66515,265.05255c0,-9.38884 7.61116,-17 17,-17c9.38884,0 17,7.61116 17,17c0,9.38884 -7.61116,17 -17,17c-9.38884,0 -17,-7.61116 -17,-17z" fill="#00a120"/><path d="M112.66515,235.55255c0,-7.45584 6.04416,-13.5 13.5,-13.5c7.45584,0 13.5,6.04416 13.5,13.5c0,7.45584 -6.04416,13.5 -13.5,13.5c-7.45584,0 -13.5,-6.04416 -13.5,-13.5z" fill="#00a120"/><path d="M-30.33485,-0.94745c0,-5.52285 4.47715,-10 10,-10c5.52285,0 10,4.47715 10,10c0,5.52285 -4.47715,10 -10,10c-5.52285,0 -10,-4.47715 -10,-10z" fill="#00a120"/><path d="M38.66515,28.05255c0,-9.94113 8.05887,-18 18,-18c9.94113,0 18,8.05887 18,18c0,9.94113 -8.05887,18 -18,18c-9.94113,0 -18,-8.05887 -18,-18z" fill="#00a120"/><path d="M7.66515,423.55255c0,-8.56041 6.93959,-15.5 15.5,-15.5c8.56041,0 15.5,6.93959 15.5,15.5c0,8.56041 -6.93959,15.5 -15.5,15.5c-8.56041,0 -15.5,-6.93959 -15.5,-15.5z" fill="#00a120"/><path d="M84.66515,368.05255c0,-12.15026 9.84974,-22 22,-22c12.15026,0 22,9.84974 22,22c0,12.15026 -9.84974,22 -22,22c-12.15026,0 -22,-9.84974 -22,-22z" fill="#00a120"/><path d="M74.11215,-0.26621c0,-5.80479 4.70571,-10.51051 10.51051,-10.51051c5.8048,0 10.51051,4.70571 10.51051,10.51051c0,5.80479 -4.70571,10.51051 -10.51051,10.51051c-5.8048,0 -10.51051,-4.70571 -10.51051,-10.51051z" fill="#00a120"/><path d="M305.89905,175.92448c0,-85.41341 69.24125,-154.65465 154.65465,-154.65465c85.41341,0 154.65465,69.24125 154.65465,154.65465c0,85.41341 -69.24125,154.65465 -154.65465,154.65465c-85.41341,0 -154.65465,-69.24125 -154.65465,-154.65465z" fill="#008c1c"/><path d="M230.45676,370.63769c0,-31.51174 25.54531,-57.05706 57.05706,-57.05706c31.51174,0 57.05706,25.54531 57.05706,57.05706c0,31.51174 -25.54531,57.05706 -57.05706,57.05706c-31.51174,0 -57.05706,-25.54531 -57.05706,-57.05706z" fill="#008c1c"/><path d="M502.22853,-22.00495c0,-10.3657 8.40306,-18.76877 18.76877,-18.76877c10.3657,0 18.76877,8.40306 18.76877,18.76877c0,10.3657 -8.40306,18.76877 -18.76877,18.76877c-10.3657,0 -18.76877,-8.40306 -18.76877,-18.76877z" fill="#008c1c"/><path d="M398.62493,-40.77372c0,-10.78033 8.73919,-19.51952 19.51952,-19.51952c10.78033,0 19.51952,8.73919 19.51952,19.51952c0,10.78033 -8.73919,19.51952 -19.51952,19.51952c-10.78033,0 -19.51952,-8.73919 -19.51952,-19.51952z" fill="#008c1c"/><path d="M219.94625,24.5416c0,-31.92637 25.88144,-57.80781 57.80781,-57.80781c31.92637,0 57.80781,25.88144 57.80781,57.80781c0,31.92637 -25.88144,57.80781 -57.80781,57.80781c-31.92637,0 -57.80781,-25.88144 -57.80781,-57.80781z" fill="#8c6200"/><path d="M606.81691,407.43243c0,-5.79899 4.70101,-10.5 10.5,-10.5c5.79899,0 10.5,4.70101 10.5,10.5c0,5.79899 -4.70101,10.5 -10.5,10.5c-5.79899,0 -10.5,-4.70101 -10.5,-10.5z" fill="#00a120"/><path d="M609.81691,461.93243c0,-7.73199 6.26801,-14 14,-14c7.73199,0 14,6.26801 14,14c0,7.73199 -6.26801,14 -14,14c-7.73199,0 -14,-6.26801 -14,-14z" fill="#00a120"/><path d="M594.81691,548.93243c0,-13.25483 10.74517,-24 24,-24c13.25483,0 24,10.74517 24,24c0,13.25483 -10.74517,24 -24,24c-13.25483,0 -24,-10.74517 -24,-24z" fill="#00a120"/><path d="M570.81691,486.43243c0,-6.35127 5.14873,-11.5 11.5,-11.5c6.35127,0 11.5,5.14873 11.5,11.5c0,6.35127 -5.14873,11.5 -11.5,11.5c-6.35127,0 -11.5,-5.14873 -11.5,-11.5z" fill="#00a120"/><path d="M574.16482,378.86292c0,-6.21943 5.04184,-11.26126 11.26126,-11.26126c6.21942,0 11.26126,5.04183 11.26126,11.26126c0,6.21943 -5.04183,11.26126 -11.26126,11.26126c-6.21943,0 -11.26126,-5.04183 -11.26126,-11.26126z" fill="#00a120"/><path d="M412.58707,613.40991c0,-6.07513 4.92487,-11 11,-11c6.07513,0 11,4.92487 11,11c0,6.07513 -4.92487,11 -11,11c-6.07513,0 -11,-4.92487 -11,-11z" fill="#00a120"/><path d="M407.58707,474.40991c0,-11.0457 8.9543,-20 20,-20c11.0457,0 20,8.9543 20,20c0,11.04569 -8.9543,20 -20,20c-11.0457,0 -20,-8.95431 -20,-20z" fill="#00a120"/><path d="M517.58707,406.90991c0,-13.53098 10.96902,-24.5 24.5,-24.5c13.53098,0 24.5,10.96902 24.5,24.5c0,13.53098 -10.96902,24.5 -24.5,24.5c-13.53098,0 -24.5,-10.96902 -24.5,-24.5z" fill="#00a120"/><path d="M506.58707,527.90991c0,-5.79899 4.70101,-10.5 10.5,-10.5c5.79899,0 10.5,4.70101 10.5,10.5c0,5.79899 -4.70101,10.5 -10.5,10.5c-5.79899,0 -10.5,-4.70101 -10.5,-10.5z" fill="#00a120"/><path d="M477.58707,627.40991c0,-9.38884 7.61116,-17 17,-17c9.38884,0 17,7.61116 17,17c0,9.38884 -7.61116,17 -17,17c-9.38884,0 -17,-7.61116 -17,-17z" fill="#00a120"/><path d="M539.58707,597.90991c0,-7.45584 6.04416,-13.5 13.5,-13.5c7.45584,0 13.5,6.04416 13.5,13.5c0,7.45584 -6.04416,13.5 -13.5,13.5c-7.45584,0 -13.5,-6.04416 -13.5,-13.5z" fill="#00a120"/><path d="M396.58707,361.40991c0,-5.52285 4.47715,-10 10,-10c5.52285,0 10,4.47715 10,10c0,5.52285 -4.47715,10 -10,10c-5.52285,0 -10,-4.47715 -10,-10z" fill="#00a120"/><path d="M465.58707,390.40991c0,-9.94113 8.05887,-18 18,-18c9.94113,0 18,8.05887 18,18c0,9.94113 -8.05887,18 -18,18c-9.94113,0 -18,-8.05887 -18,-18z" fill="#00a120"/><path d="M501.03408,362.09115c0,-5.8048 4.70571,-10.51051 10.51051,-10.51051c5.80479,0 10.51051,4.70571 10.51051,10.51051c0,5.8048 -4.70572,10.51051 -10.51051,10.51051c-5.8048,0 -10.51051,-4.70571 -10.51051,-10.51051z" fill="#00a120"/><path d="M809.72984,82.1021c0,-5.79899 4.70101,-10.5 10.5,-10.5c5.79899,0 10.5,4.70101 10.5,10.5c0,5.79899 -4.70101,10.5 -10.5,10.5c-5.79899,0 -10.5,-4.70101 -10.5,-10.5z" fill="#00a120"/><path d="M812.72984,136.6021c0,-7.73199 6.26801,-14 14,-14c7.73199,0 14,6.26801 14,14c0,7.73199 -6.26801,14 -14,14c-7.73199,0 -14,-6.26801 -14,-14z" fill="#00a120"/><path d="M797.72984,223.6021c0,-13.25483 10.74517,-24 24,-24c13.25483,0 24,10.74517 24,24c0,13.25483 -10.74517,24 -24,24c-13.25483,0 -24,-10.74517 -24,-24z" fill="#00a120"/><path d="M773.72984,161.1021c0,-6.35127 5.14873,-11.5 11.5,-11.5c6.35127,0 11.5,5.14873 11.5,11.5c0,6.35127 -5.14873,11.5 -11.5,11.5c-6.35127,0 -11.5,-5.14873 -11.5,-11.5z" fill="#00a120"/><path d="M777.07775,53.53259c0,-6.21943 5.04184,-11.26126 11.26126,-11.26126c6.21943,0 11.26126,5.04183 11.26126,11.26126c0,6.21943 -5.04184,11.26126 -11.26126,11.26126c-6.21943,0 -11.26126,-5.04183 -11.26126,-11.26126z" fill="#00a120"/><path d="M615.5,288.07958c0,-6.07513 4.92487,-11 11,-11c6.07513,0 11,4.92487 11,11c0,6.07513 -4.92487,11 -11,11c-6.07513,0 -11,-4.92487 -11,-11z" fill="#00a120"/><path d="M610.5,149.07958c0,-11.0457 8.9543,-20 20,-20c11.0457,0 20,8.9543 20,20c0,11.04569 -8.9543,20 -20,20c-11.0457,0 -20,-8.95431 -20,-20z" fill="#00a120"/><path d="M720.5,81.57958c0,-13.53098 10.96902,-24.5 24.5,-24.5c13.53098,0 24.5,10.96902 24.5,24.5c0,13.53098 -10.96902,24.5 -24.5,24.5c-13.53098,0 -24.5,-10.96902 -24.5,-24.5z" fill="#00a120"/><path d="M709.5,202.57958c0,-5.79899 4.70101,-10.5 10.5,-10.5c5.79899,0 10.5,4.70101 10.5,10.5c0,5.79899 -4.70101,10.5 -10.5,10.5c-5.79899,0 -10.5,-4.70101 -10.5,-10.5z" fill="#00a120"/><path d="M680.5,302.07958c0,-9.38884 7.61116,-17 17,-17c9.38884,0 17,7.61116 17,17c0,9.38884 -7.61116,17 -17,17c-9.38884,0 -17,-7.61116 -17,-17z" fill="#00a120"/><path d="M742.5,272.57958c0,-7.45584 6.04416,-13.5 13.5,-13.5c7.45584,0 13.5,6.04416 13.5,13.5c0,7.45584 -6.04416,13.5 -13.5,13.5c-7.45584,0 -13.5,-6.04416 -13.5,-13.5z" fill="#00a120"/><path d="M599.5,36.07958c0,-5.52285 4.47715,-10 10,-10c5.52285,0 10,4.47715 10,10c0,5.52285 -4.47715,10 -10,10c-5.52285,0 -10,-4.47715 -10,-10z" fill="#00a120"/><path d="M668.5,65.07958c0,-9.94113 8.05887,-18 18,-18c9.94113,0 18,8.05887 18,18c0,9.94113 -8.05887,18 -18,18c-9.94113,0 -18,-8.05887 -18,-18z" fill="#00a120"/><path d="M703.94701,36.76082c0,-5.8048 4.70571,-10.51051 10.51051,-10.51051c5.8048,0 10.51051,4.70571 10.51051,10.51051c0,5.80479 -4.70571,10.51051 -10.51051,10.51051c-5.8048,0 -10.51051,-4.70572 -10.51051,-10.51051z" fill="#00a120"/><path d="M393.6007,403.47987c0,-7.73199 6.26801,-14 14,-14c7.73199,0 14,6.26801 14,14c0,7.73199 -6.26801,14 -14,14c-7.73199,0 -14,-6.26801 -14,-14z" fill="#00a120"/><path d="M378.6007,490.47987c0,-13.25483 10.74517,-24 24,-24c13.25483,0 24,10.74517 24,24c0,13.25483 -10.74517,24 -24,24c-13.25483,0 -24,-10.74517 -24,-24z" fill="#00a120"/><path d="M354.6007,427.97987c0,-6.35127 5.14873,-11.5 11.5,-11.5c6.35127,0 11.5,5.14873 11.5,11.5c0,6.35127 -5.14873,11.5 -11.5,11.5c-6.35127,0 -11.5,-5.14873 -11.5,-11.5z" fill="#00a120"/><path d="M361.6007,632.97987c0,-10.21727 8.28273,-18.5 18.5,-18.5c10.21727,0 18.5,8.28273 18.5,18.5c0,10.21727 -8.28273,18.5 -18.5,18.5c-10.21727,0 -18.5,-8.28273 -18.5,-18.5z" fill="#00a120"/><path d="M290.37086,469.45734c0,-5.79899 4.70101,-10.5 10.5,-10.5c5.79899,0 10.5,4.70101 10.5,10.5c0,5.79899 -4.70101,10.5 -10.5,10.5c-5.79899,0 -10.5,-4.70101 -10.5,-10.5z" fill="#00a120"/><path d="M261.37086,568.95734c0,-9.38884 7.61116,-17 17,-17c9.38884,0 17,7.61116 17,17c0,9.38884 -7.61116,17 -17,17c-9.38884,0 -17,-7.61116 -17,-17z" fill="#00a120"/><path d="M323.37086,539.45734c0,-7.45584 6.04416,-13.5 13.5,-13.5c7.45584,0 13.5,6.04416 13.5,13.5c0,7.45584 -6.04416,13.5 -13.5,13.5c-7.45584,0 -13.5,-6.04416 -13.5,-13.5z" fill="#00a120"/><path d="M218.37086,727.45734c0,-8.56041 6.93959,-15.5 15.5,-15.5c8.56041,0 15.5,6.93959 15.5,15.5c0,8.56041 -6.93959,15.5 -15.5,15.5c-8.56041,0 -15.5,-6.93959 -15.5,-15.5z" fill="#00a120"/><path d="M295.37086,671.95734c0,-12.15026 9.84974,-22 22,-22c12.15026,0 22,9.84974 22,22c0,12.15026 -9.84974,22 -22,22c-12.15026,0 -22,-9.84974 -22,-22z" fill="#00a120"/><path d="M441.16246,674.54249c0,-31.51174 25.54532,-57.05706 57.05706,-57.05706c31.51174,0 57.05705,25.54532 57.05705,57.05706c0,31.51174 -25.54531,57.05705 -57.05705,57.05705c-31.51174,0 -57.05706,-25.54532 -57.05706,-57.05705z" fill="#008c1c"/><path d="M52.22671,-159.5401c0,-6.07513 4.92487,-11 11,-11c6.07513,0 11,4.92487 11,11c0,6.07513 -4.92487,11 -11,11c-6.07513,0 -11,-4.92487 -11,-11z" fill="#00a120"/><path d="M61.22671,-50.0401c0,-7.45585 6.04415,-13.5 13.5,-13.5c7.45585,0 13.5,6.04415 13.5,13.5c0,7.45585 -6.04415,13.5 -13.5,13.5c-7.45585,0 -13.5,-6.04415 -13.5,-13.5z" fill="#00a120"/><path d="M146.22671,-245.0401c0,-5.79899 4.70101,-10.5 10.5,-10.5c5.79899,0 10.5,4.70101 10.5,10.5c0,5.79899 -4.70101,10.5 -10.5,10.5c-5.79899,0 -10.5,-4.70101 -10.5,-10.5z" fill="#00a120"/><path d="M117.22671,-145.5401c0,-9.38884 7.61116,-17 17,-17c9.38884,0 17,7.61116 17,17c0,9.38884 -7.61116,17 -17,17c-9.38884,0 -17,-7.61116 -17,-17z" fill="#00a120"/><path d="M179.22671,-175.0401c0,-7.45584 6.04416,-13.5 13.5,-13.5c7.45584,0 13.5,6.04416 13.5,13.5c0,7.45584 -6.04416,13.5 -13.5,13.5c-7.45584,0 -13.5,-6.04416 -13.5,-13.5z" fill="#00a120"/><path d="M151.22671,-42.5401c0,-12.15026 9.84974,-22 22,-22c12.15026,0 22,9.84974 22,22c0,12.15026 -9.84974,22 -22,22c-12.15026,0 -22,-9.84974 -22,-22z" fill="#00a120"/></g></g></svg>