<svg version="1.1" xmlns="http://www.w3.org/2000/svg" xmlns:xlink="http://www.w3.org/1999/xlink" width="328" height="328" viewBox="0,0,328,328"><defs><radialGradient cx="240" cy="180" r="164" gradientUnits="userSpaceOnUse" id="color-1"><stop offset="0" stop-color="#f1f1f1"/><stop offset="1" stop-color="#f1f1f1" stop-opacity="0"/></radialGradient></defs><g transform="translate(-76,-16)"><g data-paper-data="{&quot;isPaintingLayer&quot;:true}" fill-rule="nonzero" stroke-width="0" stroke-linecap="butt" stroke-linejoin="miter" stroke-miterlimit="10" stroke-dasharray="" stroke-dashoffset="0" style="mix-blend-mode: normal"><path d="M102.5,180c0,-75.93915 61.56085,-137.5 137.5,-137.5c75.93915,0 137.5,61.56085 137.5,137.5c0,75.93915 -61.56085,137.5 -137.5,137.5c-75.93915,0 -137.5,-61.56085 -137.5,-137.5z" fill="#f1f1f1" stroke="#eaeaea"/><path d="M76,180c0,-90.5747 73.4253,-164 164,-164c90.5747,0 164,73.4253 164,164c0,90.5747 -73.4253,164 -164,164c-90.5747,0 -164,-73.4253 -164,-164z" fill="url(#color-1)" stroke="#eaeaea"/><path d="M164,180c0,-41.97364 34.02636,-76 76,-76c41.97364,0 76,34.02636 76,76c0,41.97364 -34.02636,76 -76,76c-41.97364,0 -76,-34.02636 -76,-76z" fill="#f8f8f8" stroke="none"/><path d="M190.5,180c0,-27.33809 22.16191,-49.5 49.5,-49.5c27.33809,0 49.5,22.16191 49.5,49.5c0,27.33809 -22.16191,49.5 -49.5,49.5c-27.33809,0 -49.5,-22.16191 -49.5,-49.5z" fill="#ffffff" stroke="none"/></g></g></svg>