<svg version="1.1" xmlns="http://www.w3.org/2000/svg" xmlns:xlink="http://www.w3.org/1999/xlink" width="157" height="102.5" viewBox="0,0,157,102.5"><defs><linearGradient x1="379.85565" y1="10.97474" x2="379.85565" y2="105.97474" gradientUnits="userSpaceOnUse" id="color-1"><stop offset="0" stop-color="#000000" stop-opacity="0"/><stop offset="1" stop-color="#000000"/></linearGradient></defs><g transform="translate(-308.85565,-10.97473)"><g data-paper-data="{&quot;isPaintingLayer&quot;:true}" fill-rule="nonzero" stroke="none" stroke-width="0" stroke-linecap="butt" stroke-linejoin="miter" stroke-miterlimit="10" stroke-dasharray="" stroke-dashoffset="0" style="mix-blend-mode: normal"><path d="M375.29135,31.60535c14.01238,-1.98509 27.78944,13.47231 30.77191,34.52506c2.98247,21.05275 -5.95904,39.72861 -19.97142,41.7137c-14.01238,1.98509 -27.78944,-13.47231 -30.77191,-34.52506c-2.98247,-21.05275 5.95904,-39.72861 19.97142,-41.7137z" data-paper-data="{&quot;index&quot;:null}" fill="#000000"/><path d="M386.01252,45.4798c3.76595,-0.53351 7.46866,3.6208 8.27023,9.27892c0.80157,5.65812 -1.60154,10.67743 -5.3675,11.21094c-3.76595,0.53351 -7.46866,-3.6208 -8.27023,-9.27892c-0.80157,-5.65812 1.60154,-10.67743 5.3675,-11.21094z" data-paper-data="{&quot;index&quot;:null}" fill="#696969"/><path d="M367.36252,49.0798c3.76596,-0.53351 7.46867,3.62081 8.27023,9.27893c0.80156,5.65812 -1.60154,10.67742 -5.3675,11.21093c-3.76596,0.53351 -7.46867,-3.6208 -8.27023,-9.27892c-0.80156,-5.65812 1.60154,-10.67743 5.3675,-11.21094z" data-paper-data="{&quot;index&quot;:null}" fill="#424242"/><path d="M309.35565,113.47474l-0.5,-81.5l157,-21v95z" data-paper-data="{&quot;index&quot;:null}" fill="url(#color-1)"/></g></g></svg>