<svg version="1.1" xmlns="http://www.w3.org/2000/svg" xmlns:xlink="http://www.w3.org/1999/xlink" width="483" height="394" viewBox="0,0,483,394"><g transform="translate(8.21429,14.71429)"><g data-paper-data="{&quot;isPaintingLayer&quot;:true}" fill-rule="nonzero" stroke="none" stroke-width="0" stroke-linecap="butt" stroke-linejoin="miter" stroke-miterlimit="10" stroke-dasharray="" stroke-dashoffset="0" style="mix-blend-mode: normal"><path d="M-8.21429,163.78571c0,-79.25286 64.24714,-143.5 143.5,-143.5c79.25286,0 143.5,64.24714 143.5,143.5c0,79.25286 -64.24714,143.5 -143.5,143.5c-79.25286,0 -143.5,-64.24714 -143.5,-143.5z" fill="#765200"/><path d="M294.57904,182.64085l-30.20434,-101.08386l51.26054,-15.31689l30.20434,101.08386z" fill="#a1a1a1"/><path d="M314.35714,146.19047v-65h65v65z" fill="#a1a1a1"/><path d="M309.85714,166.69047v-29.5h29.5v29.5z" fill="#6f6f6f"/><path d="M309.35714,130.19047v-29.5h29.5v29.5z" fill="#6f6f6f"/><path d="M280.85714,122.69047v-18.5h18.5v18.5z" fill="#6f6f6f"/><path d="M294.85714,121.19047v-16h16v16z" fill="#4d4d4d"/><path d="M315.35714,148.69047v-27h17v27z" fill="#4d4d4d"/><path d="M346.59524,117.09524v-19h19v19z" fill="#e2e2e2"/><path d="M253.39285,113.14285c0,-9.1127 7.3873,-16.5 16.5,-16.5c9.1127,0 16.5,7.3873 16.5,16.5c0,9.1127 -7.3873,16.5 -16.5,16.5c-9.1127,0 -16.5,-7.3873 -16.5,-16.5z" fill="#4e4e4e"/><path d="M355.59524,115.7619v-16.33333h16.33333v16.33333z" fill="#fafafa"/><path d="M276.66515,261.05255c0,-22.64368 18.35632,-41 41,-41c22.64368,0 41,18.35632 41,41c0,22.64368 -18.35632,41 -41,41c-22.64368,0 -41,-18.35632 -41,-41z" fill="#00a120"/><path d="M365.66515,206.55255c0,-13.53098 10.96902,-24.5 24.5,-24.5c13.53098,0 24.5,10.96902 24.5,24.5c0,13.53098 -10.96902,24.5 -24.5,24.5c-13.53098,0 -24.5,-10.96902 -24.5,-24.5z" fill="#00a120"/><path d="M346.66515,47.55255c0,-11.32184 9.17816,-20.5 20.5,-20.5c11.32184,0 20.5,9.17816 20.5,20.5c0,11.32184 -9.17816,20.5 -20.5,20.5c-11.32184,0 -20.5,-9.17816 -20.5,-20.5z" fill="#00a120"/><path d="M14.78571,325.28571c0,-8.83656 7.16344,-16 16,-16c8.83656,0 16,7.16344 16,16c0,8.83656 -7.16344,16 -16,16c-8.83656,0 -16,-7.16344 -16,-16z" fill="#00a120"/><path d="M18.78571,13.28571c0,-6.62742 5.37258,-12 12,-12c6.62742,0 12,5.37258 12,12c0,6.62742 -5.37258,12 -12,12c-6.62742,0 -12,-5.37258 -12,-12z" fill="#00a120"/><path d="M218.78571,346.28571c0,-18.2254 14.7746,-33 33,-33c18.2254,0 33,14.7746 33,33c0,18.2254 -14.7746,33 -33,33c-18.2254,0 -33,-14.7746 -33,-33z" fill="#00a120"/><path d="M405.78571,288.78571c0,-7.45584 6.04416,-13.5 13.5,-13.5c7.45584,0 13.5,6.04416 13.5,13.5c0,7.45584 -6.04416,13.5 -13.5,13.5c-7.45584,0 -13.5,-6.04416 -13.5,-13.5z" fill="#00a120"/><path d="M362.78571,312.78571c0,-8.00813 6.49187,-14.5 14.5,-14.5c8.00813,0 14.5,6.49187 14.5,14.5c0,8.00813 -6.49187,14.5 -14.5,14.5c-8.00813,0 -14.5,-6.49187 -14.5,-14.5z" fill="#00a120"/><path d="M69.78571,341.28571c0,-11.04569 8.95431,-20 20,-20c11.04569,0 20,8.95431 20,20c0,11.04569 -8.95431,20 -20,20c-11.04569,0 -20,-8.95431 -20,-20z" fill="#00a120"/><path d="M251.78571,15.28571c0,-6.07513 4.92487,-11 11,-11c6.07513,0 11,4.92487 11,11c0,6.07513 -4.92487,11 -11,11c-6.07513,0 -11,-4.92487 -11,-11z" fill="#00a120"/><path d="M429.78571,7.78571c0,-12.42641 10.07359,-22.5 22.5,-22.5c12.42641,0 22.5,10.07359 22.5,22.5c0,12.42641 -10.07359,22.5 -22.5,22.5c-12.42641,0 -22.5,-10.07359 -22.5,-22.5z" fill="#00a120"/></g></g></svg>