<svg version="1.1" xmlns="http://www.w3.org/2000/svg" xmlns:xlink="http://www.w3.org/1999/xlink" width="157" height="102.5" viewBox="0,0,157,102.5"><defs><linearGradient x1="100.14435" y1="10.97474" x2="100.14435" y2="105.97474" gradientUnits="userSpaceOnUse" id="color-1"><stop offset="0" stop-color="#000000" stop-opacity="0"/><stop offset="1" stop-color="#000000"/></linearGradient></defs><g transform="translate(-14.14435,-10.97474)"><g data-paper-data="{&quot;isPaintingLayer&quot;:true}" fill-rule="nonzero" stroke="none" stroke-width="0" stroke-linecap="butt" stroke-linejoin="miter" stroke-miterlimit="10" stroke-dasharray="" stroke-dashoffset="0" style="mix-blend-mode: normal"><path d="M124.68007,73.31905c-2.98247,21.05275 -16.75953,36.51015 -30.77191,34.52506c-14.01238,-1.98509 -22.95389,-20.66095 -19.97142,-41.7137c2.98247,-21.05275 16.75953,-36.51015 30.77191,-34.52506c14.01238,1.98509 22.95389,20.66095 19.97142,41.7137z" fill="#000000"/><path d="M99.35498,56.69074c-0.80157,5.65812 -4.50428,9.81243 -8.27023,9.27892c-3.76596,-0.53351 -6.16907,-5.55282 -5.3675,-11.21094c0.80157,-5.65812 4.50428,-9.81243 8.27023,-9.27892c3.76596,0.53351 6.16907,5.55282 5.3675,11.21094z" fill="#696969"/><path d="M118.00498,60.29074c-0.80156,5.65812 -4.50427,9.81243 -8.27023,9.27892c-3.76596,-0.53351 -6.16906,-5.55281 -5.3675,-11.21093c0.80156,-5.65812 4.50427,-9.81244 8.27023,-9.27893c3.76596,0.53351 6.16906,5.55282 5.3675,11.21094z" fill="#424242"/><path d="M14.14435,105.97474v-95l157,21l-0.5,81.5z" fill="url(#color-1)"/></g></g></svg>