<svg version="1.1" xmlns="http://www.w3.org/2000/svg" xmlns:xlink="http://www.w3.org/1999/xlink" width="491" height="491" viewBox="0,0,491,491"><defs><radialGradient cx="240" cy="180" r="163" gradientUnits="userSpaceOnUse" id="color-1"><stop offset="0" stop-color="#ffffff"/><stop offset="1" stop-color="#ffffff" stop-opacity="0"/></radialGradient><radialGradient cx="240" cy="180" r="245.5" gradientUnits="userSpaceOnUse" id="color-2"><stop offset="0" stop-color="#000000"/><stop offset="1" stop-color="#000000" stop-opacity="0"/></radialGradient></defs><g transform="translate(5.5,65.5)"><g data-paper-data="{&quot;isPaintingLayer&quot;:true}" fill-rule="nonzero" stroke="none" stroke-width="0" stroke-linecap="butt" stroke-linejoin="miter" stroke-miterlimit="10" stroke-dasharray="" stroke-dashoffset="0" style="mix-blend-mode: normal"><path d="M77,180c0,-90.02242 72.97758,-163 163,-163c90.02242,0 163,72.97758 163,163c0,90.02242 -72.97758,163 -163,163c-90.02242,0 -163,-72.97758 -163,-163z" fill="url(#color-1)"/><path d="M-5.5,180c0,-135.58591 109.91409,-245.5 245.5,-245.5c135.58591,0 245.5,109.91409 245.5,245.5c0,135.58591 -109.91409,245.5 -245.5,245.5c-135.58591,0 -245.5,-109.91409 -245.5,-245.5z" fill="url(#color-2)"/></g></g></svg>