<svg version="1.1" xmlns="http://www.w3.org/2000/svg" xmlns:xlink="http://www.w3.org/1999/xlink" width="641.22492" height="535.40256" viewBox="0,0,641.22492,535.40256"><g transform="translate(-52.27719,168.5)"><g data-paper-data="{&quot;isPaintingLayer&quot;:true}" fill-rule="nonzero" stroke="none" stroke-width="0" stroke-linecap="butt" stroke-linejoin="miter" stroke-miterlimit="10" stroke-dasharray="" stroke-dashoffset="0" style="mix-blend-mode: normal"><path d="M61.5,-25c0,-79.25286 64.24714,-143.5 143.5,-143.5c79.25286,0 143.5,64.24714 143.5,143.5c0,79.25286 -64.24714,143.5 -143.5,143.5c-79.25286,0 -143.5,-64.24714 -143.5,-143.5z" fill="#160075"/><path d="M324.78571,107.78571c0,-17.12083 13.87917,-31 31,-31c17.12083,0 31,13.87917 31,31c0,17.12083 -13.87917,31 -31,31c-17.12083,0 -31,-13.87917 -31,-31z" fill="#757575"/><path d="M161.96336,145.5619c-5.74153,-0.81434 -9.7358,-6.12893 -8.92146,-11.87045c0.81434,-5.74153 6.12893,-9.7358 11.87045,-8.92146c5.74153,0.81434 9.7358,6.12893 8.92146,11.87045c-0.81434,5.74153 -6.12893,9.7358 -11.87045,8.92146z" fill="#00a120"/><path d="M216.3446,150.24498c-7.65537,-1.08579 -12.98106,-8.1719 -11.89527,-15.82727c1.08579,-7.65537 8.1719,-12.98106 15.82727,-11.89527c7.65537,1.08579 12.98106,8.1719 11.89527,15.82727c-1.08579,7.65537 -8.1719,12.98106 -15.82727,11.89527z" fill="#00a120"/><path d="M300.37608,177.31361c-13.12349,-1.86136 -22.25325,-14.00898 -20.3919,-27.13246c1.86136,-13.12349 14.00898,-22.25325 27.13246,-20.3919c13.12349,1.86136 22.25325,14.00898 20.3919,27.13246c-1.86136,13.12349 -14.00898,22.25325 -27.13246,20.3919z" fill="#00a120"/><path d="M235.12512,192.29901c-6.28833,-0.8919 -10.66302,-6.71264 -9.77112,-13.00097c0.8919,-6.28833 6.71264,-10.66302 13.00097,-9.77112c6.28833,0.8919 10.66302,6.71264 9.77112,13.00097c-0.8919,6.28833 -6.71264,10.66302 -13.00097,9.77112z" fill="#00a120"/><path d="M129.09167,173.87847c-6.1578,-0.87338 -10.44165,-6.57328 -9.56827,-12.73107c0.87338,-6.1578 6.57327,-10.44165 12.73107,-9.56827c6.1578,0.87338 10.44165,6.57327 9.56827,12.73107c-0.87338,6.1578 -6.57327,10.44165 -12.73107,9.56827z" fill="#00a120"/><path d="M338.62438,366.79218c-6.01493,-0.85312 -10.19941,-6.42078 -9.34629,-12.43571c0.85312,-6.01493 6.42078,-10.19941 12.43571,-9.34629c6.01493,0.85312 10.19941,6.42078 9.34629,12.43571c-0.85312,6.01493 -6.42078,10.19941 -12.43571,9.34629z" fill="#00a120"/><path d="M200.29961,352.22308c-10.93625,-1.55113 -18.54438,-11.67414 -16.99325,-22.61039c1.55113,-10.93625 11.67414,-18.54438 22.61039,-16.99325c10.93624,1.55113 18.54438,11.67414 16.99325,22.61039c-1.55113,10.93625 -11.67415,18.54438 -22.61039,16.99325z" fill="#00a120"/><path d="M148.91561,233.83417c-13.3969,-1.90013 -22.71686,-14.30082 -20.81673,-27.69772c1.90013,-13.3969 14.30082,-22.71686 27.69772,-20.81673c13.3969,1.90013 22.71686,14.30082 20.81673,27.69772c-1.90013,13.3969 -14.30082,22.71686 -27.69772,20.81673z" fill="#00a120"/><path d="M267.17188,261.71701c-5.74153,-0.81434 -9.7358,-6.12893 -8.92146,-11.87045c0.81434,-5.74153 6.12893,-9.7358 11.87045,-8.92146c5.74153,0.81434 9.7358,6.12893 8.92146,11.87045c-0.81434,5.74153 -6.12893,9.7358 -11.87045,8.92146z" fill="#00a120"/><path d="M361.6135,304.40227c-9.2958,-1.31846 -15.76272,-9.92302 -14.44426,-19.21883c1.31846,-9.2958 9.92302,-15.76272 19.21883,-14.44426c9.2958,1.31846 15.76272,9.92302 14.44426,19.21883c-1.31846,9.2958 -9.92302,15.76272 -19.21883,14.44426z" fill="#00a120"/><path d="M341.11238,238.874c-7.38196,-1.04701 -12.51745,-7.88005 -11.47044,-15.26201c1.04701,-7.38196 7.88005,-12.51745 15.26201,-11.47044c7.38196,1.04701 12.51745,7.88005 11.47044,15.26201c-1.04701,7.38196 -7.88005,12.51745 -15.26201,11.47044z" fill="#00a120"/><path d="M86.87463,347.24566c-5.46812,-0.77557 -9.27219,-5.83707 -8.49662,-11.30519c0.77557,-5.46812 5.83707,-9.27219 11.30519,-8.49662c5.46812,0.77557 9.27219,5.83707 8.49662,11.30519c-0.77557,5.46812 -5.83707,9.27219 -11.30519,8.49662z" fill="#00a120"/><path d="M125.27683,283.00182c-9.84262,-1.39602 -16.68994,-10.50673 -15.29392,-20.34935c1.39602,-9.84262 10.50673,-16.68994 20.34935,-15.29392c9.84262,1.39602 16.68994,10.50673 15.29392,20.34935c-1.39602,9.84262 -10.50673,16.68994 -20.34935,15.29392z" fill="#00a120"/><path d="M102.21645,243.92931c-5.74727,-0.81516 -9.74554,-6.13505 -8.93039,-11.88233c0.81516,-5.74728 6.13505,-9.74554 11.88233,-8.93039c5.74727,0.81516 9.74554,6.13505 8.93039,11.88233c-0.81516,5.74728 -6.13505,9.74554 -11.88233,8.93039z" fill="#00a120"/><path d="M71.19054,161.64244c-12.02986,-1.70624 -20.39881,-12.84156 -18.69257,-24.87142c1.70624,-12.02986 12.84156,-20.39881 24.87142,-18.69257c12.02986,1.70624 20.39881,12.84156 18.69257,24.87142c-1.70624,12.02986 -12.84156,20.39881 -24.87142,18.69257z" fill="#00a120"/><path d="M620.74025,128.43866c3.69961,-4.46556 10.31878,-5.08648 14.78434,-1.38687c4.46556,3.69961 5.08648,10.31878 1.38687,14.78434c-3.69961,4.46556 -10.31878,5.08648 -14.78434,1.38687c-4.46556,-3.69961 -5.08648,-10.31878 -1.38687,-14.78434z" fill="#00a120"/><path d="M588.28082,172.32072c4.93281,-5.95408 13.75837,-6.78198 19.71245,-1.84917c5.95408,4.93281 6.78198,13.75837 1.84917,19.71245c-4.93281,5.95408 -13.75837,6.78198 -19.71245,1.84917c-5.95408,-4.93281 -6.78198,-13.75837 -1.84917,-19.71245z" fill="#00a120"/><path d="M521.22618,229.74612c8.45624,-10.20698 23.58578,-11.62624 33.79277,-3.17c10.20698,8.45624 11.62624,23.58578 3.17,33.79277c-8.45624,10.20698 -23.58578,11.62624 -33.79277,3.17c-10.20698,-8.45624 -11.62624,-23.58578 -3.17,-33.79277z" fill="#00a120"/><path d="M542.6182,166.30613c4.05195,-4.89084 11.30152,-5.5709 16.19237,-1.51896c4.89084,4.05195 5.5709,11.30152 1.51896,16.19237c-4.05195,4.89084 -11.30152,5.5709 -16.19237,1.51896c-4.89084,-4.05195 -5.5709,-11.30152 -1.51896,-16.19237z" fill="#00a120"/><path d="M613.82286,85.60729c3.96784,-4.78932 11.0669,-5.45525 15.85621,-1.48742c4.78932,3.96784 5.45526,11.06689 1.48742,15.85621c-3.96784,4.78932 -11.06689,5.45526 -15.85621,1.48742c-4.78932,-3.96784 -5.45526,-11.06689 -1.48742,-15.85621z" fill="#00a120"/><path d="M339.76374,163.13952c3.87578,-4.6782 10.81015,-5.32869 15.48835,-1.45292c4.6782,3.87578 5.32869,10.81015 1.45292,15.48835c-3.87578,4.6782 -10.81015,5.32869 -15.48835,1.45292c-4.6782,-3.87578 -5.32869,-10.81015 -1.45292,-15.48835z" fill="#00a120"/><path d="M424.59188,52.91164c7.04687,-8.50583 19.65481,-9.68854 28.16064,-2.64167c8.50583,7.04687 9.68854,19.65481 2.64167,28.16064c-7.04687,8.50582 -19.65481,9.68854 -28.16064,2.64167c-8.50583,-7.04687 -9.68853,-19.65482 -2.64167,-28.16064z" fill="#00a120"/><path d="M552.36149,71.10993c8.63242,-10.41963 24.07715,-11.86846 34.49678,-3.23604c10.41963,8.63242 11.86846,24.07715 3.23604,34.49678c-8.63242,10.41963 -24.07715,11.86846 -34.49678,3.23604c-10.41963,-8.63242 -11.86846,-24.07715 -3.23604,-34.49678z" fill="#00a120"/><path d="M466.69596,157.26918c3.69961,-4.46556 10.31878,-5.08648 14.78434,-1.38687c4.46556,3.69961 5.08648,10.31878 1.38687,14.78434c-3.69961,4.46556 -10.31878,5.08648 -14.78434,1.38687c-4.46556,-3.69961 -5.08648,-10.31878 -1.38687,-14.78434z" fill="#00a120"/><path d="M380.88584,215.38866c5.98984,-7.22995 16.7066,-8.23525 23.93654,-2.24542c7.22995,5.98984 8.23525,16.7066 2.24542,23.93654c-5.98984,7.22995 -16.7066,8.23525 -23.93654,2.24542c-7.22995,-5.98984 -8.23525,-16.7066 -2.24542,-23.93654z" fill="#00a120"/><path d="M447.44966,232.22637c4.75663,-5.74143 13.26701,-6.53976 19.00843,-1.78312c5.74143,4.75663 6.53976,13.26701 1.78312,19.00843c-4.75663,5.74143 -13.26701,6.53976 -19.00843,1.78312c-5.74143,-4.75663 -6.53976,-13.26701 -1.78312,-19.00843z" fill="#00a120"/><path d="M488.21235,-41.12259c3.52344,-4.25291 9.82741,-4.84427 14.08032,-1.32083c4.25291,3.52344 4.84427,9.82741 1.32083,14.08032c-3.52344,4.25291 -9.82741,4.84427 -14.08032,1.32083c-4.25291,-3.52344 -4.84427,-9.82741 -1.32083,-14.08032z" fill="#00a120"/><path d="M522.84507,25.22931c6.34219,-7.65524 17.68933,-8.71968 25.34458,-2.3775c7.65524,6.34219 8.71968,17.68933 2.3775,25.34458c-6.34219,7.65524 -17.68933,8.71968 -25.34458,2.3775c-7.65524,-6.34219 -8.71968,-17.68933 -2.3775,-25.34458z" fill="#00a120"/><path d="M568.20794,26.03651c3.70331,-4.47002 10.3291,-5.09158 14.79913,-1.38826c4.47003,3.70331 5.09158,10.3291 1.38826,14.79913c-3.70331,4.47002 -10.3291,5.09158 -14.79913,1.38826c-4.47003,-3.70331 -5.09158,-10.3291 -1.38826,-14.79913z" fill="#00a120"/><path d="M654.56026,42.68029c7.75155,-9.3564 21.6203,-10.65739 30.9767,-2.90583c9.3564,7.75155 10.65739,21.6203 2.90583,30.9767c-7.75155,9.3564 -21.6203,10.65739 -30.9767,2.90583c-9.3564,-7.75155 -10.65739,-21.6203 -2.90583,-30.9767z" fill="#00a120"/></g></g></svg>