<svg version="1.1" xmlns="http://www.w3.org/2000/svg" xmlns:xlink="http://www.w3.org/1999/xlink" width="164.04057" height="176.20701" viewBox="0,0,164.04057,176.20701"><defs><linearGradient x1="345.17048" y1="243.6953" x2="326.45952" y2="221.69191" gradientUnits="userSpaceOnUse" id="color-1"><stop offset="0" stop-color="#ffffff" stop-opacity="0"/><stop offset="1" stop-color="#ffffff"/></linearGradient><linearGradient x1="333.0788" y1="138.5074" x2="357.57392" y2="178.66226" gradientUnits="userSpaceOnUse" id="color-2"><stop offset="0" stop-color="#10ff00" stop-opacity="0"/><stop offset="1" stop-color="#10ff00"/></linearGradient><linearGradient x1="358.85147" y1="268.64849" x2="315.55527" y2="268.43916" gradientUnits="userSpaceOnUse" id="color-3"><stop offset="0" stop-color="#ffffff" stop-opacity="0"/><stop offset="1" stop-color="#ffffff"/></linearGradient><linearGradient x1="299.56445" y1="228.90991" x2="264.16274" y2="184.35426" gradientUnits="userSpaceOnUse" id="color-4"><stop offset="0" stop-color="#ffffff" stop-opacity="0"/><stop offset="1" stop-color="#ffffff"/></linearGradient><linearGradient x1="370.58406" y1="215.15615" x2="420.4719" y2="187.77567" gradientUnits="userSpaceOnUse" id="color-5"><stop offset="0" stop-color="#ffffff" stop-opacity="0"/><stop offset="1" stop-color="#ffffff"/></linearGradient><linearGradient x1="402.23687" y1="242.97573" x2="363.65384" y2="284.80678" gradientUnits="userSpaceOnUse" id="color-6"><stop offset="0" stop-color="#ffffff" stop-opacity="0"/><stop offset="1" stop-color="#ffffff"/></linearGradient><linearGradient x1="279.21127" y1="246.47573" x2="317.79431" y2="288.30678" gradientUnits="userSpaceOnUse" id="color-7"><stop offset="0" stop-color="#ffffff" stop-opacity="0"/><stop offset="1" stop-color="#ffffff"/></linearGradient></defs><g transform="translate(-259.61982,-133.73333)"><g data-paper-data="{&quot;isPaintingLayer&quot;:true}" fill-rule="nonzero" stroke-linejoin="miter" stroke-miterlimit="10" stroke-dasharray="" stroke-dashoffset="0" style="mix-blend-mode: normal"><path d="M382.75927,232.4524v64.31002h-26.86066" fill="none" stroke="#cccccc" stroke-width="8.5" stroke-linecap="round"/><path d="M327.94173,306.94034v-26.00772h26.00772v26.00772z" fill="none" stroke="#cccccc" stroke-width="6" stroke-linecap="butt"/><text transform="translate(333.86196,296.38244) scale(0.18086,0.18086)" font-size="40" xml:space="preserve" fill="#e4e4e4" fill-rule="nonzero" stroke="none" stroke-width="1" stroke-linecap="butt" stroke-linejoin="miter" stroke-miterlimit="10" stroke-dasharray="" stroke-dashoffset="0" font-family="Pixel" font-weight="normal" text-anchor="start" style="mix-blend-mode: normal"><tspan x="0" dy="0">You</tspan></text><path d="M325.7913,296.76242h-26.86066v-64.31002" data-paper-data="{&quot;index&quot;:null}" fill="none" stroke="#cccccc" stroke-width="8.5" stroke-linecap="round"/><path d="M334.24663,281.40548v-62.57617h13.08267v62.57617z" fill="none" stroke="#cccccc" stroke-width="5" stroke-linecap="butt"/><path d="M327.62648,214.5735v-26.00772h26.00772v26.00772z" fill="none" stroke="#cccccc" stroke-width="6" stroke-linecap="butt"/><path d="M270.88234,229.07479v-37.04131h37.04131v37.04131z" fill="none" stroke="#cccccc" stroke-width="6" stroke-linecap="butt"/><path d="M372.81285,228.7241v-37.0413h37.04131v37.0413z" fill="none" stroke="#cccccc" stroke-width="6" stroke-linecap="butt"/><path d="M310.4746,210.08942v-12.61463h13.08267v12.61463z" fill="none" stroke="#cccccc" stroke-width="5" stroke-linecap="butt"/><path d="M356.00407,210.08942v-12.61463h13.08268v12.61463z" fill="none" stroke="#cccccc" stroke-width="5" stroke-linecap="butt"/><path d="M334.24663,186.82105v-11.8088h13.08267v11.8088z" fill="none" stroke="#cccccc" stroke-width="5" stroke-linecap="butt"/><path d="M321.95189,173.77462v-37.04129h37.04131v37.04131z" fill="none" stroke="#cccccc" stroke-width="6" stroke-linecap="butt"/><path d="M340.47474,246.48165l-14.11409,-24.73109l22.73398,18.25105z" data-paper-data="{&quot;index&quot;:null}" fill="url(#color-1)" stroke="none" stroke-width="0" stroke-linecap="butt"/><path d="M336.29602,227.5326l-6.49725,6.62763l-13.44513,-13.18063l6.49724,-6.62762z" data-paper-data="{&quot;index&quot;:null}" fill="#848484" stroke="none" stroke-width="0" stroke-linecap="butt"/><path d="M335.04426,232.78313l-5.09895,3.16757l-2.52486,-10.84498l10.79631,1.85414z" data-paper-data="{&quot;index&quot;:null}" fill="#848484" stroke="none" stroke-width="0" stroke-linecap="butt"/><text transform="translate(317.97138,219.15645) rotate(44.43018) scale(0.1678,0.16779) skewX(0.00002)" font-size="40" xml:space="preserve" data-paper-data="{&quot;index&quot;:null}" fill="#ffffff" fill-rule="nonzero" stroke="none" stroke-width="1" stroke-linecap="butt" stroke-linejoin="miter" stroke-miterlimit="10" stroke-dasharray="" stroke-dashoffset="0" font-family="Pixel" font-weight="normal" text-anchor="start" style="mix-blend-mode: normal"><tspan x="0" dy="0">Cam 2</tspan></text><path d="M339.83885,134.38366l17.87741,44.1918l-30.38739,-34.28846z" fill="url(#color-2)" stroke="none" stroke-width="0" stroke-linecap="butt"/><path d="M349.1539,171.28393l7.38574,-5.62054l11.40211,14.98308l-7.38573,5.62054z" fill="#848484" stroke="none" stroke-width="0" stroke-linecap="butt"/><path d="M351.15032,166.26904l5.50272,-2.39852l0.93325,11.09583l-10.41568,-3.39287z" fill="#848484" stroke="none" stroke-width="0" stroke-linecap="butt"/><text transform="translate(349.77391,168.56536) rotate(52.72994) scale(0.17225,0.17224) skewX(0.00069)" font-size="40" xml:space="preserve" fill="#1bff00" fill-rule="nonzero" stroke="none" stroke-width="1" stroke-linecap="butt" stroke-linejoin="miter" stroke-miterlimit="10" stroke-dasharray="" stroke-dashoffset="0" font-family="Pixel" font-weight="normal" text-anchor="start" style="mix-blend-mode: normal"><tspan x="0" dy="0">Cam 3</tspan></text><path d="M358.81623,275.93738l-43.26172,-7.34476l41.5468,-7.24165z" data-paper-data="{&quot;index&quot;:null}" fill="url(#color-3)" stroke="none" stroke-width="0" stroke-linecap="butt"/><path d="M332.36975,263.95075l-0.04487,9.28103l-18.82797,-0.09103l0.04487,-9.28103z" data-paper-data="{&quot;index&quot;:null}" fill="#848484" stroke="none" stroke-width="0" stroke-linecap="butt"/><path d="M335.1291,268.5898l-1.45187,5.82451l-9.36598,-6.02218l9.03761,-6.19028z" data-paper-data="{&quot;index&quot;:null}" fill="#848484" stroke="none" stroke-width="0" stroke-linecap="butt"/><text transform="translate(314.58495,270.16155) rotate(0.27739) scale(0.1766,0.17659) skewX(-0.00002)" font-size="40" xml:space="preserve" data-paper-data="{&quot;index&quot;:null}" fill="#ffffff" fill-rule="nonzero" stroke="none" stroke-width="1" stroke-linecap="butt" stroke-linejoin="miter" stroke-miterlimit="10" stroke-dasharray="" stroke-dashoffset="0" font-family="Pixel" font-weight="normal" text-anchor="start" style="mix-blend-mode: normal"><tspan x="0" dy="0">Cam 1</tspan></text><path d="M292.06353,234.86977l-28.05872,-50.39005l41.6007,36.63301z" fill="url(#color-4)" stroke="none" stroke-width="0" stroke-linecap="butt"/><path d="M278.59928,194.57131l-7.26663,5.7737l-11.71283,-14.74145l7.26663,-5.7737z" fill="#848484" stroke="none" stroke-width="0" stroke-linecap="butt"/><path d="M276.70813,199.62683l-5.45138,2.51302l-1.16499,-11.07389l10.48433,3.1744z" fill="#848484" stroke="none" stroke-width="0" stroke-linecap="butt"/><text transform="translate(263.60213,185.7263) rotate(51.53053) scale(0.15279,0.15278) skewX(-0.0003)" font-size="40" xml:space="preserve" data-paper-data="{&quot;index&quot;:null}" fill="#ffffff" fill-rule="nonzero" stroke="none" stroke-width="1" stroke-linecap="butt" stroke-linejoin="miter" stroke-miterlimit="10" stroke-dasharray="" stroke-dashoffset="0" font-family="Pixel" font-weight="normal" text-anchor="start" style="mix-blend-mode: normal"><tspan x="0" dy="0">Cam 4</tspan></text><path d="M365.97457,206.75756l54.4003,-19.15872l-43.12411,34.82681z" fill="url(#color-5)" stroke="none" stroke-width="0" stroke-linecap="butt"/><path d="M407.15476,200.64379l-4.46551,-8.13626l16.50563,-9.05896l4.46551,8.13626z" fill="#848484" stroke="none" stroke-width="0" stroke-linecap="butt"/><path d="M402.49058,197.92713l-1.55767,-5.79711l11.11175,0.71927l-4.89708,9.79881z" fill="#848484" stroke="none" stroke-width="0" stroke-linecap="butt"/><text transform="translate(404.55362,199.51357) rotate(-28.76022) scale(0.17023,0.17022) skewX(0.00014)" font-size="40" xml:space="preserve" fill="#ffffff" fill-rule="nonzero" stroke="none" stroke-width="1" stroke-linecap="butt" stroke-linejoin="miter" stroke-miterlimit="10" stroke-dasharray="" stroke-dashoffset="0" font-family="Pixel" font-weight="normal" text-anchor="start" style="mix-blend-mode: normal"><tspan x="0" dy="0">Cam 5</tspan></text><path d="M409.27911,249.47117l-45.47702,35.47238l29.80152,-46.73826z" data-paper-data="{&quot;index&quot;:null}" fill="url(#color-6)" stroke="none" stroke-width="0" stroke-linecap="butt"/><path d="M372.18442,268.37012l6.82227,6.29255l-12.76538,13.84l-6.82227,-6.29255z" data-paper-data="{&quot;index&quot;:null}" fill="#848484" stroke="none" stroke-width="0" stroke-linecap="butt"/><text transform="translate(364.16335,287.97084) rotate(-47.31277) scale(0.17023,0.17022) skewX(0.00133)" font-size="40" xml:space="preserve" data-paper-data="{&quot;index&quot;:null}" fill="#ffffff" fill-rule="nonzero" stroke="none" stroke-width="1" stroke-linecap="butt" stroke-linejoin="miter" stroke-miterlimit="10" stroke-dasharray="" stroke-dashoffset="0" font-family="Pixel" font-weight="normal" text-anchor="start" style="mix-blend-mode: normal"><tspan x="0" dy="0">Cam 6</tspan></text><path d="M287.84454,241.70528l29.80152,46.73826l-45.47702,-35.47238z" data-paper-data="{&quot;index&quot;:null}" fill="url(#color-7)" stroke="none" stroke-width="0" stroke-linecap="butt"/><path d="M322.02911,285.71011l-6.82227,6.29255l-12.76538,-13.84l6.82226,-6.29255z" data-paper-data="{&quot;index&quot;:null}" fill="#848484" stroke="none" stroke-width="0" stroke-linecap="butt"/><text transform="translate(304.7659,277.49981) rotate(46.80433) scale(0.17023,0.17022) skewX(0.00108)" font-size="40" xml:space="preserve" data-paper-data="{&quot;index&quot;:null}" fill="#ffffff" fill-rule="nonzero" stroke="none" stroke-width="1" stroke-linecap="butt" stroke-linejoin="miter" stroke-miterlimit="10" stroke-dasharray="" stroke-dashoffset="0" font-family="Pixel" font-weight="normal" text-anchor="start" style="mix-blend-mode: normal"><tspan x="0" dy="0">Cam7</tspan><tspan x="0" dy="48px"> </tspan></text></g></g></svg>